<svg width="30" height="30" viewBox="0 0 30 30" fill="none" xmlns="http://www.w3.org/2000/svg">
<rect width="30" height="30" rx="15" fill="#AB9AFF"/>
<path d="M23.3076 17.8373L24.9362 17.5457L23.4604 15.8935L24.7387 15.1794L23.1218 13.9738L24.1616 11.4738H21.8865L22.4843 9.01847L20.0469 10.2688L20.7151 7.03218L18.2526 9.06325L17.9912 5.93858L16.1292 8.74983L14.9678 5L13.8076 8.74983L11.9461 5.93746L11.6853 9.06213L9.22276 7.03106L9.88877 10.2677L7.45082 9.01847L8.04912 11.4738H5.77515L6.81503 13.9738L5.19813 15.1794L6.47587 15.8935L5 17.5457L6.62866 17.8373L5.50931 19.9641L6.95327 20.503L6.54135 21.872L7.71219 21.614L7.82916 23.3014L8.80244 22.8055L8.89087 24.353L9.66546 24.095C9.66546 24.095 11.0372 25.5188 13.7931 24.7946C13.9519 24.7547 14.0995 24.679 14.2245 24.5732C14.3495 24.4675 14.4487 24.3346 14.5145 24.1846C14.6578 23.8488 14.6102 23.4368 13.6906 23.2857C12.0704 23.0193 9.82889 23.3316 9.01568 21.2978C9.00991 21.2835 9.00872 21.2678 9.01226 21.2528C9.0158 21.2378 9.02389 21.2243 9.03543 21.2141C9.04697 21.2039 9.06139 21.1976 9.0767 21.1959C9.092 21.1942 9.10744 21.1974 9.1209 21.2049C10.121 21.7707 12.4638 22.2817 12.6592 21.2121C12.8674 20.0721 11.8667 19.6954 11.3008 19.3837C10.735 19.0719 8.16665 18.2391 8.28418 16.7073C8.40171 15.1755 10.0751 15.5852 10.454 15.8902C10.7954 16.114 14.1703 18.1893 14.1703 18.1893C14.1703 18.1893 12.9468 19.8124 14.9678 19.8124C16.9888 19.8124 15.7665 18.1893 15.7665 18.1893C15.7665 18.1893 19.1402 16.1129 19.4827 15.8902C19.8616 15.5852 21.534 15.1766 21.6526 16.7073C21.7713 18.238 19.2001 19.0691 18.6348 19.3837C18.0696 19.6982 17.0677 20.0721 17.2771 21.2121C17.4729 22.2811 19.8141 21.7718 20.8148 21.2049C20.8283 21.1973 20.8438 21.1941 20.8592 21.1957C20.8746 21.1974 20.8891 21.2038 20.9007 21.2141C20.9123 21.2244 20.9204 21.238 20.9238 21.2531C20.9273 21.2682 20.9259 21.284 20.92 21.2983C20.1079 23.3316 17.8653 23.0193 16.245 23.2857C15.326 23.4368 15.2779 23.8454 15.4217 24.1846C15.4873 24.3345 15.5863 24.4674 15.7111 24.5732C15.836 24.6789 15.9834 24.7547 16.142 24.7946C18.899 25.5188 20.2713 24.095 20.2713 24.095L21.0459 24.353L21.1343 22.8055L22.1071 23.3014L22.2246 21.6145L23.3954 21.8726L22.9835 20.503L24.4252 19.9674L23.3076 17.8373ZM12.812 15.6719C12.5927 15.6719 12.3783 15.6069 12.196 15.4851C12.0137 15.3632 11.8716 15.1901 11.7876 14.9875C11.7037 14.7849 11.6818 14.562 11.7245 14.3469C11.7673 14.1318 11.8729 13.9343 12.028 13.7792C12.183 13.6241 12.3806 13.5186 12.5957 13.4758C12.8107 13.433 13.0337 13.4549 13.2362 13.5389C13.4388 13.6228 13.612 13.7649 13.7338 13.9472C13.8557 14.1295 13.9207 14.3439 13.9207 14.5632C13.9207 14.8572 13.8039 15.1392 13.5959 15.3472C13.388 15.5551 13.106 15.6719 12.812 15.6719ZM17.1243 15.6719C16.905 15.6719 16.6906 15.6069 16.5083 15.4851C16.326 15.3632 16.1839 15.1901 16.0999 14.9875C16.016 14.7849 15.9941 14.562 16.0368 14.3469C16.0796 14.1318 16.1852 13.9343 16.3403 13.7792C16.4953 13.6241 16.6929 13.5186 16.908 13.4758C17.123 13.433 17.346 13.4549 17.5486 13.5389C17.7511 13.6228 17.9243 13.7649 18.0461 13.9472C18.168 14.1295 18.233 14.3439 18.233 14.5632C18.2331 14.7088 18.2044 14.853 18.1487 14.9876C18.093 15.1221 18.0114 15.2444 17.9084 15.3473C17.8054 15.4503 17.6832 15.532 17.5486 15.5877C17.4141 15.6434 17.2699 15.672 17.1243 15.6719Z" fill="white"/>
</svg>
