<svg width="52" height="52" viewBox="0 0 52 52" fill="none" xmlns="http://www.w3.org/2000/svg">
<path fill-rule="evenodd" clip-rule="evenodd" d="M26 41.7269C17.3143 41.7269 10.2731 34.6858 10.2731 26.0001C10.2731 17.3144 17.3143 10.2732 26 10.2732C34.6857 10.2732 41.7269 17.3144 41.7269 26.0001C41.7269 34.6858 34.6857 41.7269 26 41.7269Z" fill="white"/>
<path fill-rule="evenodd" clip-rule="evenodd" d="M10.2732 25.9999C10.2732 34.6856 17.3143 41.7268 26 41.7268C34.6857 41.7268 41.7269 34.6856 41.7269 25.9999C41.7269 17.3142 34.6857 10.273 26 10.273C17.3143 10.273 10.2732 17.3142 10.2732 25.9999ZM0.00645333 25.9999C0.0064527 40.3558 11.6442 51.9935 26 51.9935C40.3559 51.9935 51.9936 40.3558 51.9936 25.9999C51.9936 11.6441 40.3559 0.00634715 26 0.00634652C11.6442 0.00634589 0.00645396 11.6441 0.00645333 25.9999Z" fill="url(#paint0_radial_106_19)"/>
<path fill-rule="evenodd" clip-rule="evenodd" d="M2.02877 36.0601C6.47912 46.7019 17.4965 53.1428 28.9301 51.8314C25.3655 49.3542 7.86609 31.6878 24.4525 24.0779C42.5993 15.7521 41.465 6.18925 37.1329 2.51062C31.7537 -0.0420677 25.4744 -0.769652 19.2724 0.89216C14.2597 2.23529 9.98379 4.95542 6.74244 8.53652C3.6473 12.0346 1.49051 16.2958 0.53242 20.7691C-0.0582541 23.6336 -0.170386 26.6306 0.261017 29.6476C0.410022 30.5848 0.617989 31.5156 0.887245 32.4352C1.17113 33.6883 1.5561 34.8984 2.02877 36.0601Z" fill="url(#paint1_linear_106_19)"/>
<path fill-rule="evenodd" clip-rule="evenodd" d="M36.8791 2.39209C40.7131 4.9849 50.1636 12.6467 34.0435 21.8921C16.3828 32.021 31.1682 47.7185 41.0774 47.1829C49.6651 41.0685 53.9966 30.0537 51.1078 19.2726C49.028 11.5106 43.6464 5.51505 36.8791 2.39209Z" fill="url(#paint2_linear_106_19)"/>
<defs>
<radialGradient id="paint0_radial_106_19" cx="0" cy="0" r="1" gradientUnits="userSpaceOnUse" gradientTransform="translate(26 25.9999) rotate(-29.6192) scale(33.8711 32.4328)">
<stop offset="0.5" stop-color="#B8B8FF"/>
<stop offset="1" stop-color="#DCDCFF"/>
</radialGradient>
<linearGradient id="paint1_linear_106_19" x1="19.9091" y1="66.1081" x2="19.9091" y2="0" gradientUnits="userSpaceOnUse">
<stop stop-color="#4844EC"/>
<stop offset="1" stop-color="#766AFF"/>
</linearGradient>
<linearGradient id="paint2_linear_106_19" x1="66.6517" y1="30.1364" x2="11.163" y2="30.1364" gradientUnits="userSpaceOnUse">
<stop stop-color="#4844EC"/>
<stop offset="1" stop-color="#766AFF"/>
</linearGradient>
</defs>
</svg>
